<svg xmlns="http://www.w3.org/2000/svg" viewBox="0 0 320 215" width="320" height="215">
  <title>PCMYM logo con wordmark</title>
  <path fill-rule="evenodd" fill="#16181D"
        d="M126,49 L160,30 L194,49 L194,87 L160,106 L126,87 Z
           M140,82 L140,54 L150,54 L160,68 L170,54 L180,54 L180,82 L170,82 L170,66 L160,80 L150,66 L150,82 Z"/>
  <circle cx="160" cy="74" r="5.5" fill="#D7261E"/>
  <path transform="translate(62.65,180.00) scale(0.04600,-0.04600)" d="M94 0V700H382Q474 700 541.0 670.0Q608 640 644.0 584.0Q680 528 680 451Q680 374 644.0 318.0Q608 262 541.0 232.0Q474 202 382 202H224V0ZM224 312H376Q462 312 505.5 348.5Q549 385 549 451Q549 517 505.5 553.5Q462 590 376 590H224Z" fill="#16181D"/>
<path transform="translate(98.55,180.00) scale(0.04600,-0.04600)" d="M418 -10Q338 -10 269.5 16.5Q201 43 150.5 91.5Q100 140 72.0 206.0Q44 272 44 350Q44 428 72.0 494.0Q100 560 150.5 608.5Q201 657 269.5 683.5Q338 710 419 710Q505 710 576.0 680.0Q647 650 696 593L612 514Q536 596 425 596Q352 596 295.5 564.5Q239 533 207.0 477.5Q175 422 175 350Q175 278 207.0 222.5Q239 167 295.5 135.5Q352 104 425 104Q537 104 612 187L696 107Q647 50 576.0 20.0Q505 -10 418 -10Z" fill="#16181D"/>
<path transform="translate(134.08,180.00) scale(0.04600,-0.04600)" d="M94 0V700H201L479 237L752 700H859L860 0H737L736 463L506 80H448L218 458V0Z" fill="#16181D"/>
<path transform="translate(180.51,180.00) scale(0.04600,-0.04600)" d="M266 0V246L-9 700H130L335 359L542 700H670L396 246V0Z" fill="#16181D"/>
<path transform="translate(213.41,180.00) scale(0.04600,-0.04600)" d="M94 0V700H201L479 237L752 700H859L860 0H737L736 463L506 80H448L218 458V0Z" fill="#16181D"/>
</svg>
